<svg xmlns="http://www.w3.org/2000/svg" width="162" height="58" viewBox="0 0 162 58"><g fill="#394F8B"><path d="M66.1 37.5H63l-2.7-3.9h-1.2v3.9h-2.6V26.8h4.3c.6 0 1.1 0 1.5.1s.8.2 1.2.5c.4.2.7.6.9.9.2.4.3.9.3 1.4 0 .8-.2 1.4-.5 1.9s-.8.9-1.5 1.2l3.4 4.7zm-4-7.4c0-.3-.1-.5-.2-.7-.1-.2-.3-.3-.5-.5-.2-.1-.4-.1-.6-.1-.2 0-.5 0-.8 0h-.9v2.9h.8c.4 0 .8 0 1-.1.3 0 .5-.1.7-.3.2-.1.3-.3.4-.5.1-.2.1-.4.1-.7zM74.5 37.5h-7.3V26.8h7.3v2.1h-4.7v1.9h4.3v2.1h-4.3v2.7h4.7v1.9zM85.6 36.9c-.4.2-1 .4-1.8.6-.7.2-1.5.3-2.2.3-1.7 0-3-.5-4-1.5s-1.4-2.4-1.4-4.1c0-1.7.5-3 1.5-4s2.3-1.5 4.1-1.5c.7 0 1.3.1 1.9.2.6.1 1.3.4 2 .8V30h-.3c-.1-.1-.3-.2-.6-.4-.2-.2-.5-.3-.7-.5-.3-.2-.6-.3-.9-.4-.3-.1-.7-.2-1.1-.2-.5 0-.9.1-1.2.2-.4.1-.7.4-1 .7-.3.3-.5.7-.7 1.1-.2.4-.2 1-.2 1.5 0 1.2.3 2.1.9 2.7.6.6 1.5.9 2.6.9.1 0 .2 0 .3 0 .1 0 .2 0 .3 0v-2.1h-2v-2h4.6v5.4zM93.3 37.5h-5.9v-1.9H89v-6.9h-1.6v-1.9h5.9v1.9h-1.6v6.9h1.6v1.9zM103.4 34.2c0 1.1-.4 1.9-1.3 2.6-.8.7-2 1-3.4 1-.8 0-1.6-.1-2.2-.2-.6-.2-1.2-.4-1.7-.6v-2.6h.3c.5.5 1.1.8 1.8 1.1.7.2 1.3.4 1.9.4.2 0 .4 0 .6 0 .3 0 .5-.1.6-.1.2-.1.4-.2.5-.3.1-.1.2-.3.2-.6 0-.2-.1-.4-.3-.6-.2-.2-.5-.3-.8-.4-.4-.1-.8-.2-1.2-.3s-.8-.2-1.2-.3c-.8-.3-1.5-.7-1.8-1.2-.4-.5-.6-1.1-.6-1.9 0-1 .4-1.8 1.3-2.5.8-.6 1.9-.9 3.2-.9.7 0 1.3.1 2 .2.6.1 1.2.3 1.7.5V30h-.3c-.4-.3-.9-.6-1.5-.9-.6-.2-1.2-.4-1.8-.4-.2 0-.4 0-.6 0-.2 0-.4.1-.6.2-.2.1-.3.2-.5.3-.1.1-.2.3-.2.5 0 .3.1.5.3.7.2.2.6.3 1.1.4.4.1.7.2 1.1.2s.7.2 1.1.3c.8.3 1.3.6 1.7 1.1.4.4.6 1 .6 1.8zM113 28.9h-3.1v8.7h-2.6v-8.7h-3.1v-2.1h8.8v2.1zM124.3 37.5h-3.2l-2.7-3.9h-1.2v3.9h-2.6V26.8h4.3c.6 0 1.1 0 1.5.1s.8.2 1.2.5c.4.2.7.6.9.9.2.4.3.9.3 1.4 0 .8-.2 1.4-.5 1.9s-.8.9-1.5 1.2l3.5 4.7zm-4.1-7.4c0-.3-.1-.5-.2-.7-.1-.2-.3-.3-.5-.5-.2-.1-.4-.1-.6-.1-.2 0-.5 0-.8 0h-.9v2.9h.8c.4 0 .8 0 1-.1.3 0 .5-.1.7-.3.2-.1.3-.3.4-.5.1-.2.1-.4.1-.7zM134.2 33.6c0 1.3-.4 2.3-1.1 3.1s-1.9 1.1-3.3 1.1-2.6-.4-3.3-1.1c-.8-.7-1.1-1.7-1.1-3v-6.9h2.6v6.7c0 .7.1 1.3.4 1.7.3.4.8.5 1.4.5.6 0 1.1-.2 1.4-.5.3-.4.4-.9.4-1.7v-6.7h2.6v6.8zM143.8 37.5h-7.2V26.8h2.6v8.7h4.6v2zM65.7 55.3H63l-.7-2.2h-3.7l-.6 2.2h-2.6l3.7-10.8h3l3.6 10.8zm-3.9-4.2l-1.2-3.9-1.2 3.9h2.4zM76 51.4c0 1.3-.4 2.3-1.1 3.1-.8.7-1.9 1.1-3.3 1.1-1.5 0-2.6-.4-3.3-1.1-.8-.7-1.1-1.7-1.1-3v-6.9h2.6v6.7c0 .7.1 1.3.4 1.7.3.4.8.5 1.4.5.6 0 1.1-.2 1.4-.5.3-.4.4-.9.4-1.7v-6.7H76v6.8zM86.2 46.6h-3.1v8.7h-2.6v-8.7h-3.1v-2.1h8.8v2.1zM97.5 49.9c0 1.7-.5 3.1-1.4 4.1-.9 1-2.2 1.5-3.8 1.5-1.6 0-2.9-.5-3.8-1.5-.9-1-1.4-2.4-1.4-4.1 0-1.7.5-3.1 1.4-4.1.9-1 2.2-1.5 3.8-1.5 1.6 0 2.9.5 3.8 1.5 1 1 1.4 2.4 1.4 4.1zm-3.4 2.7c.3-.3.4-.7.6-1.2s.2-1 .2-1.6c0-.6-.1-1.2-.2-1.6-.1-.5-.3-.8-.5-1.1-.2-.3-.5-.5-.8-.6-.3-.1-.6-.2-.9-.2-.3 0-.6.1-.9.2-.3.1-.6.3-.8.6-.2.3-.4.6-.5 1.1-.1.5-.2 1-.2 1.6 0 .6.1 1.2.2 1.6.1.5.3.8.5 1.1.2.3.5.5.8.6.3.1.6.2.9.2.3 0 .6-.1.9-.2.2 0 .5-.2.7-.5zM113.9 55.3h-3.2l-2.7-3.9h-1.2v3.9h-2.6V44.5h4.3c.6 0 1.1 0 1.5.1.4.1.8.2 1.2.5.4.2.7.6.9.9.2.4.3.9.3 1.4 0 .8-.2 1.4-.5 1.9s-.8.9-1.5 1.2l3.5 4.8zm-4.1-7.5c0-.3-.1-.5-.2-.7-.1-.2-.3-.3-.5-.5-.2-.1-.4-.1-.6-.1-.2 0-.5 0-.8 0h-.9v2.9h.8c.4 0 .8 0 1-.1.3 0 .5-.1.7-.3.2-.1.3-.3.4-.5.1-.1.1-.4.1-.7zM124.8 49.9c0 1.7-.5 3.1-1.4 4.1-.9 1-2.2 1.5-3.8 1.5-1.6 0-2.9-.5-3.8-1.5-.9-1-1.4-2.4-1.4-4.1 0-1.7.5-3.1 1.4-4.1.9-1 2.2-1.5 3.8-1.5 1.6 0 2.9.5 3.8 1.5.9 1 1.4 2.4 1.4 4.1zm-3.5 2.7c.3-.3.4-.7.6-1.2.1-.4.2-1 .2-1.6 0-.6-.1-1.2-.2-1.6-.1-.5-.3-.8-.5-1.1-.2-.3-.5-.5-.8-.6-.3-.1-.6-.2-.9-.2-.3 0-.6.1-.9.2-.3.1-.6.3-.8.6-.2.3-.4.6-.5 1.1-.1.5-.2 1-.2 1.6 0 .6.1 1.2.2 1.6.1.5.3.8.5 1.1.2.3.5.5.8.6.3.1.6.2.9.2.3 0 .6-.1.9-.2.2 0 .5-.2.7-.5zM137.2 55.3h-2.6v-7.2l-1.9 4.7H131l-1.9-4.7v7.2h-2.4V44.5h3l2.3 5.4 2.2-5.4h3v10.8zM149.1 55.3h-2.7l-.7-2.2H142l-.7 2.2h-2.6l3.7-10.8h3l3.7 10.8zm-2.2-11.9h-1.8l-1.2-1.6-1.2 1.6h-1.8l2.2-2.8h1.7l2.1 2.8zm-1.8 7.7l-1.2-3.9-1.2 3.9h2.4zM159.6 55.3h-2.5l-4.3-7.4v7.4h-2.4V44.5h3.1l3.7 6.2v-6.2h2.4v10.8z"/></g><path fill="#394F8B" d="M50 55.5h-8.7L30 38.8s3.6-.7 8.3-5.1c4.7-4.4 5.9-14.2.9-19.9-4-4.4-9.6-5.1-11.8-5.2-.6 0-.9 0-.9 0h-18v46.8H2.8v-53h20.8c18.9 0 25.7 11.1 25.7 20.8 0 12.8-8 18.5-8 18.5L50 55.5z"/><path fill="#394F8B" d="M9.9 10.3v12.5l10 16.1h-9.6v5.3h12.5l6.9 11.3h7.4"/><path fill="#C1C1C1" d="M34.8 41L44 55.5h-7L26.9 38.8s3.2-.7 7.4-5.1c4.2-4.4 5.2-14.2.8-19.9-3.5-4.4-8.6-5.1-10.5-5.2-.5 0-.8 0-.8 0H8.5v46.8H2.6v-53s0 0 .1 0h18.4C38.2 2.5 44 11 44 23.3 44 36.1 34.8 41 34.8 41z"/></svg>